<?xml version="1.0" standalone="no"?>
<!DOCTYPE svg PUBLIC "-//W3C//DTD SVG 1.1//EN" "http://www.w3.org/Graphics/SVG/1.1/DTD/svg11.dtd" >
<svg xmlns="http://www.w3.org/2000/svg" xmlns:xlink="http://www.w3.org/1999/xlink" version="1.1" viewBox="-10 0 2058 2048">
  <g transform="matrix(1 0 0 -1 0 1920)">
   <path fill="currentColor"
d="M462.82 493.934q154.762 -22.1084 297.548 -22.1084q423.752 0 591.41 303.995q48.8242 88.4355 88.4355 173.187q39.6113 84.75 78.3018 162.131q90.2783 171.343 230.301 302.153q79.2227 71.8545 191.608 136.338q24.873 14.7393 27.6367 38.6904
q3.68457 42.375 -22.1084 60.7988q-233.985 176.871 -600.623 228.458q-117.913 18.4238 -253.33 18.4238q-135.416 0 -268.99 -25.793q-273.596 -52.5088 -452.31 -195.295q-284.65 -216.482 -284.65 -610.755q0 -183.319 69.0898 -397.038q64.4844 197.137 185.162 367.56
q247.802 350.056 636.548 494.685q191.61 71.8525 403.486 71.8525l-87.5137 -28.5566q-228.458 -74.6172 -496.527 -269.911q-149.234 -108.702 -274.518 -268.991q0 -1.84277 -30.3994 -42.375q-109.623 -146.472 -201.742 -421.91q-88.4355 -265.305 -88.4355 -560.089
h235.826l-10.1328 144.628q-1.8418 25.7939 -1.8418 53.4297q0 126.205 37.7686 286.493z" />
  </g>

</svg>
